<svg width="50" height="48" viewBox="0 0 50 48" fill="none" xmlns="http://www.w3.org/2000/svg">
<path d="M24.017 0.960392C22.9188 1.52553 21.5026 3.49123 20.8668 5.35865C20.6067 6.07122 20.3177 7.69292 20.202 8.92149L20.0286 11.1575L18.8726 9.31463C16.7339 5.87465 13.2946 3.58952 10.9247 4.0318C9.79754 4.25294 8.12126 5.87465 7.86115 6.98036C7.39872 9.14263 8.46807 12.0666 11.127 15.8015C11.9651 17.0054 12.6299 18.0374 12.5721 18.0866C12.5143 18.1357 11.8784 17.9392 11.1848 17.6934C9.39292 17.0054 6.27157 16.6123 4.42188 16.8089C0.577992 17.202 -1.04049 19.8066 0.693597 22.7797C2.10977 25.2123 5.34672 27.0551 9.62413 27.866C10.4334 28.0134 10.3756 28.0871 7.89005 29.1682C4.39298 30.7162 1.64734 32.9768 0.982611 34.8442C0.14447 37.3013 1.27163 38.8985 4.47968 39.6847C7.42762 40.4219 11.1848 39.4636 13.9593 37.3013C14.6819 36.7362 15.3177 36.3185 15.4044 36.3922C15.4622 36.4413 15.3177 37.031 15.0576 37.6945C14.7686 38.4808 14.5952 39.8813 14.5663 41.503C14.5374 44.5499 15.1443 46.0733 16.7628 46.9087C19.5084 48.3093 22.6009 46.5156 23.9303 42.7562C24.3927 41.4539 25.0575 37.7436 25.0864 36.4659C25.0864 36.3185 25.9245 37.6453 26.965 39.4145C29.017 42.9282 30.6066 44.6973 32.3695 45.459C35.2886 46.7121 38.0053 44.6481 38.3232 40.987C38.6122 37.4733 37.3117 35.1391 33.0632 31.5517L30.1441 29.0699L36.2134 29.0945C41.8203 29.0945 42.4272 29.0454 44.2191 28.5294C47.8318 27.4728 49.9705 25.5808 49.9994 23.4431C50.0572 20.3963 45.9532 18.9957 40.144 20.1014C38.6411 20.3717 37.3695 20.5683 37.3117 20.5437C37.2828 20.4946 37.8897 20.0523 38.67 19.5363C40.8377 18.1357 43.5833 15.5066 44.3347 14.1306C45.2307 12.4843 45.2885 10.3712 44.4214 9.06892C43.5255 7.71749 42.0515 7.10321 39.7105 7.10321C37.1383 7.10321 35.6354 7.74207 33.5256 9.6832L31.8493 11.2312L31.8204 8.97063C31.7337 3.09809 27.7453 -0.98074 24.017 0.960392Z" fill="#00E117"/>
</svg>
