<svg width="50" height="51" viewBox="0 0 50 51" fill="none" xmlns="http://www.w3.org/2000/svg">
<path d="M12.6261 1.17528C11.422 1.56901 10.3105 2.51398 9.68526 3.73456C9.26845 4.52203 9.15267 5.23075 9.06004 7.04193C8.94426 9.67996 9.36107 12.2196 10.4263 15.3694C10.7967 16.4522 11.0978 17.3972 11.0978 17.4562C11.0978 17.535 10.4957 17.4562 9.77788 17.3184C9.03689 17.1609 7.69383 17.0428 6.79075 17.0428C3.71099 17.0428 1.58063 17.9484 0.561758 19.6612C-0.109769 20.8227 -0.179237 21.8267 0.353353 23.3623C1.67325 27.1815 5.98028 29.6424 13.9923 31.1582L14.9185 31.3354L14.1312 31.6898C12.904 32.241 10.8894 33.9734 10.2873 34.9578C8.68954 37.6549 9.91682 39.4857 13.2976 39.4857C17.651 39.4857 22.9305 36.8477 27.307 32.4772C28.1175 31.6701 28.8353 31.0204 28.928 31.0204C29.1132 31.0204 30.5257 34.8593 31.452 37.9305C32.3319 40.8244 33.0266 43.9349 33.6518 47.6557C34.1381 50.5694 34.1381 50.6088 34.717 50.6088C35.4117 50.6088 35.4117 50.4906 34.717 46.4352C33.8834 41.5922 32.6329 37.0643 30.8731 32.5166C30.271 30.9811 29.9005 29.7211 30.0163 29.6227C30.1321 29.5242 31.452 29.3077 32.9803 29.1502C38.0978 28.5793 43.2153 27.4177 46.1793 26.1578C48.7496 25.0553 50 23.7363 50 22.1417C50 21.4527 49.8611 21.2164 49.1895 20.6652C48.7264 20.3108 47.9854 19.9171 47.4991 19.799C46.1792 19.4643 43.5626 19.3659 41.9648 19.5627C41.1544 19.6612 40.506 19.7005 40.506 19.6415C40.506 19.6021 40.7607 18.8343 41.0849 17.9484C42.0112 15.2907 42.6364 11.7077 42.5437 9.46341C42.4743 7.73097 42.3817 7.37661 41.7796 6.43164C40.7839 4.91576 39.5103 4.18735 37.6347 4.08892C36.4305 4.02986 35.9906 4.08892 34.9949 4.52203C33.5129 5.15201 31.5678 6.84507 30.5257 8.38064C30.0858 9.0303 29.669 9.56184 29.5995 9.56184C29.53 9.56184 28.9743 8.95155 28.3954 8.20346C27.006 6.51039 23.6947 3.77393 21.8422 2.80928C18.7161 1.19497 14.7564 0.505924 12.6261 1.17528Z" fill="#E18700"/>
</svg>
