<svg width="70" height="28" viewBox="0 0 70 28" fill="none" xmlns="http://www.w3.org/2000/svg">
<mask id="path-1-inside-1_5_34" fill="white"  >
<path fill-rule="evenodd" clip-rule="evenodd" d="M28.0309 11.7866C24.9302 11.9179 21.8659 12.0793 18.8777 12.2558C14.6476 12.5055 10.4191 12.7637 6.21615 13.1726C4.89314 13.3017 3.54961 13.3835 2.23487 13.5449C1.40956 13.6461 0.315223 13.7902 0.171605 13.8204C0.0964866 13.8376 0.0637151 13.8634 0.0531257 13.8721C-0.0213308 13.9323 -0.00774526 13.9904 0.0342813 14.0356C0.0511581 14.055 0.0938346 14.1023 0.212303 14.1088C8.13514 14.55 16.2367 13.6891 24.1691 13.5987C37.9254 13.4438 52.0986 14.0593 65.7456 15.4022C65.8648 15.413 65.9806 15.3591 65.9971 15.2795C66.017 15.202 65.931 15.1267 65.8119 15.1159C52.1416 13.7709 37.9452 13.1532 24.1625 13.3103C16.7698 13.3943 9.23114 14.1497 1.82817 13.8914C1.99827 13.8699 2.16506 13.8484 2.31728 13.829C3.62672 13.6676 4.96462 13.588 6.28234 13.4588C10.4764 13.0499 14.6963 12.7917 18.9208 12.5442C24.1625 12.2343 29.6326 11.9674 35.1457 11.8426C37.1179 11.862 39.0836 11.8813 41.0492 11.905C45.3015 11.9567 49.5737 12.1073 53.8161 12.3096C55.0934 12.372 56.3707 12.4366 57.6481 12.4925C58.0717 12.5119 59.1637 12.5679 59.3159 12.5636C59.5046 12.5592 59.5409 12.456 59.5442 12.4387C59.5542 12.4 59.5475 12.3462 59.4549 12.301C59.445 12.2945 59.3854 12.273 59.253 12.2601C51.5393 11.4983 43.3028 11.3713 35.1523 11.5542C26.555 11.4746 17.9247 11.4402 9.34929 11.4036C9.22652 11.4036 9.12625 11.4681 9.12526 11.5478C9.12459 11.6274 9.22353 11.692 9.3463 11.6941C15.5556 11.7199 21.7964 11.7458 28.0309 11.7866Z"/>
</mask>
<path d="M28.0309 11.7866L28.1578 14.784L28.0506 8.78671L28.0309 11.7866ZM18.8777 12.2558L19.0545 15.2506L19.0546 15.2506L18.8777 12.2558ZM6.21615 13.1726L5.92566 10.1867L5.92473 10.1868L6.21615 13.1726ZM2.23487 13.5449L2.59982 16.5226L2.60043 16.5226L2.23487 13.5449ZM0.171605 13.8204L-0.444352 10.8843L-0.471534 10.89L-0.498606 10.8962L0.171605 13.8204ZM0.0531257 13.8721L1.94043 16.204L1.94551 16.1999L0.0531257 13.8721ZM0.0342813 14.0356L2.29612 12.0648L2.26424 12.0282L2.23119 11.9927L0.0342813 14.0356ZM0.212303 14.1088L0.379099 11.1134L0.375555 11.1132L0.212303 14.1088ZM24.1691 13.5987L24.1353 10.5989L24.1349 10.5989L24.1691 13.5987ZM65.7456 15.4022L65.4519 18.3878L65.4638 18.389L65.4758 18.39L65.7456 15.4022ZM65.9971 15.2795L63.0911 14.5348L63.0739 14.6016L63.0599 14.6692L65.9971 15.2795ZM65.8119 15.1159L65.5181 18.1015L65.53 18.1027L65.542 18.1038L65.8119 15.1159ZM24.1625 13.3103L24.1966 16.3101L24.1967 16.3101L24.1625 13.3103ZM1.82817 13.8914L1.4516 10.9151L1.72358 16.8896L1.82817 13.8914ZM2.31728 13.829L1.95026 10.8515L1.93861 10.853L2.31728 13.829ZM6.28234 13.4588L5.99123 10.473L5.98976 10.4731L6.28234 13.4588ZM18.9208 12.5442L19.0962 15.5391L19.0978 15.539L18.9208 12.5442ZM35.1457 11.8426L35.1751 8.84275L35.1264 8.84227L35.0778 8.84337L35.1457 11.8426ZM41.0492 11.905L41.0857 8.90524L41.0854 8.90524L41.0492 11.905ZM53.8161 12.3096L53.9625 9.31319L53.959 9.31302L53.8161 12.3096ZM57.6481 12.4925L57.7851 9.49567L57.7794 9.49542L57.6481 12.4925ZM59.3159 12.5636L59.2475 9.56433L59.2393 9.56452L59.2311 9.56475L59.3159 12.5636ZM59.5442 12.4387L56.6382 11.694L56.6154 11.7826L56.5982 11.8725L59.5442 12.4387ZM59.4549 12.301L57.8193 14.8159L57.9739 14.9165L58.1397 14.9974L59.4549 12.301ZM59.253 12.2601L58.9582 15.2456L58.9618 15.2459L59.253 12.2601ZM35.1523 11.5542L35.1245 14.5541L35.1721 14.5545L35.2196 14.5535L35.1523 11.5542ZM9.34929 11.4036L9.36209 8.40356H9.34929V11.4036ZM9.12526 11.5478L6.12546 11.5104L6.12536 11.5228L9.12526 11.5478ZM9.3463 11.6941L9.29372 14.6937L9.31377 14.694L9.33382 14.6941L9.3463 11.6941ZM27.904 8.78933C24.7832 8.92146 21.7019 9.08381 18.7009 9.26103L19.0546 15.2506C22.03 15.0749 25.0773 14.9144 28.1578 14.784L27.904 8.78933ZM18.701 9.26103C14.4745 9.51046 10.1928 9.77157 5.92566 10.1867L6.50664 16.1585C10.6455 15.7559 14.8208 15.5005 19.0545 15.2506L18.701 9.26103ZM5.92473 10.1868C4.77243 10.2993 3.20956 10.4027 1.86931 10.5673L2.60043 16.5226C3.88966 16.3643 5.01385 16.3042 6.50757 16.1584L5.92473 10.1868ZM1.86993 10.5672C1.13723 10.657 -0.139347 10.8203 -0.444352 10.8843L0.787562 16.7565C0.717214 16.7712 0.675785 16.7766 0.727466 16.7686C0.755586 16.7642 0.799829 16.7577 0.861706 16.7489C0.984259 16.7314 1.14998 16.7088 1.34281 16.6831C1.72738 16.632 2.19721 16.572 2.59982 16.5226L1.86993 10.5672ZM-0.498606 10.8962C-1.09691 11.0333 -1.53772 11.2991 -1.83926 11.5442L1.94551 16.1999C1.85478 16.2737 1.68685 16.4011 1.45655 16.5192C1.2427 16.6288 1.03373 16.7006 0.841816 16.7446L-0.498606 10.8962ZM-1.83418 11.5401C-2.29235 11.9109 -2.9707 12.6901 -2.99913 13.8883C-3.02563 15.0049 -2.46303 15.7555 -2.16263 16.0785L2.23119 11.9927C2.48956 12.2705 3.02436 12.9694 2.99918 14.0306C2.97206 15.1735 2.32414 15.8935 1.94043 16.204L-1.83418 11.5401ZM-2.22755 16.0064C-2.12608 16.1229 -1.83632 16.4458 -1.35297 16.7098C-0.885895 16.965 -0.400291 17.0798 0.0490511 17.1043L0.375555 11.1132C0.706429 11.1313 1.11146 11.2192 1.52336 11.4442C1.95154 11.6781 2.21152 11.9677 2.29612 12.0648L-2.22755 16.0064ZM0.0455072 17.1041C4.16006 17.3333 8.28675 17.2226 12.3153 17.0504C16.3894 16.8761 20.2997 16.643 24.2033 16.5985L24.1349 10.5989C20.1061 10.6448 15.9994 10.8873 12.0589 11.0558C8.07289 11.2263 4.18739 11.3255 0.379099 11.1134L0.0455072 17.1041ZM24.2029 16.5985C37.85 16.4448 51.9138 17.0556 65.4519 18.3878L66.0394 12.4166C52.2833 11.063 38.0008 10.4427 24.1353 10.5989L24.2029 16.5985ZM65.4758 18.39C66.0358 18.4406 66.6416 18.3515 67.2092 18.0788C67.71 17.8381 68.663 17.1961 68.9344 15.8898L63.0599 14.6692C63.3148 13.4426 64.2015 12.8673 64.6106 12.6707C65.0863 12.4421 65.5746 12.3745 66.0155 12.4144L65.4758 18.39ZM68.9032 16.0243C69.2762 14.569 68.5361 13.4468 67.9391 12.9211C67.3479 12.4005 66.6621 12.1805 66.0817 12.1281L65.542 18.1038C65.0807 18.0621 64.4975 17.8852 63.9741 17.4243C63.445 16.9584 62.738 15.9125 63.0911 14.5348L68.9032 16.0243ZM66.1056 12.1304C52.3265 10.7746 38.0206 10.1522 24.1283 10.3105L24.1967 16.3101C37.8698 16.1543 51.9567 16.7672 65.5181 18.1015L66.1056 12.1304ZM24.1284 10.3105C20.3661 10.3532 16.552 10.5672 12.8651 10.7322C9.14304 10.8987 5.50778 11.018 1.93277 10.8932L1.72358 16.8896C5.55154 17.0231 9.38708 16.8938 13.1333 16.7262C16.9146 16.557 20.5661 16.3514 24.1966 16.3101L24.1284 10.3105ZM2.20475 16.8677C2.37317 16.8464 2.55405 16.8231 2.69595 16.805L1.93861 10.853C1.77607 10.8737 1.62336 10.8934 1.4516 10.9151L2.20475 16.8677ZM2.6843 16.8065C3.97134 16.6478 5.07625 16.5914 6.57491 16.4445L5.98976 10.4731C4.85299 10.5845 3.28211 10.6874 1.95026 10.8515L2.6843 16.8065ZM6.57344 16.4447C10.7028 16.0421 14.8695 15.7867 19.0962 15.5391L18.7453 9.54933C14.523 9.79669 10.2499 10.0578 5.99123 10.473L6.57344 16.4447ZM19.0978 15.539C24.3198 15.2302 29.7504 14.9655 35.2136 14.8418L35.0778 8.84337C29.5148 8.96932 24.0052 9.23835 18.7437 9.54942L19.0978 15.539ZM35.1162 14.8425C37.0889 14.8618 39.0513 14.8812 41.0131 14.9048L41.0854 8.90524C39.1159 8.88152 37.1469 8.86211 35.1751 8.84275L35.1162 14.8425ZM41.0128 14.9048C45.2197 14.9559 49.4548 15.1051 53.6732 15.3062L53.959 9.31302C49.6926 9.10958 45.3834 8.95745 41.0857 8.90524L41.0128 14.9048ZM53.6697 15.306C54.9402 15.3681 56.2295 15.4333 57.5168 15.4897L57.7794 9.49542C56.512 9.4399 55.2467 9.37594 53.9625 9.31319L53.6697 15.306ZM57.5111 15.4894C57.7857 15.502 58.0203 15.5142 58.4459 15.5338C58.6206 15.5418 58.7943 15.5494 58.9371 15.5548C59.0079 15.5575 59.0785 15.5599 59.1413 15.5616C59.1806 15.5626 59.2902 15.5655 59.4007 15.5624L59.2311 9.56475C59.3036 9.5627 59.3458 9.56482 59.2945 9.56351C59.2669 9.5628 59.2239 9.56141 59.1643 9.55915C59.0462 9.55468 58.8919 9.54793 58.7216 9.54009C58.5526 9.53232 58.3745 9.52378 58.2101 9.51588C58.0479 9.50808 57.8955 9.50072 57.7851 9.49567L57.5111 15.4894ZM59.3844 15.5628C60.0479 15.5476 60.81 15.337 61.458 14.7786C62.0464 14.2715 62.3723 13.619 62.4903 13.005L56.5982 11.8725C56.7129 11.2757 57.0189 10.6835 57.5412 10.2334C58.123 9.73203 58.7726 9.57517 59.2475 9.56433L59.3844 15.5628ZM62.4503 13.1835C62.5821 12.6693 62.64 11.8662 62.2202 11.0283C61.8208 10.2314 61.1911 9.81001 60.7701 9.60465L58.1397 14.9974C57.8113 14.8372 57.2313 14.4653 56.8559 13.7163C56.4601 12.9262 56.5163 12.1694 56.6382 11.694L62.4503 13.1835ZM61.0905 9.78607C60.7591 9.57059 60.4544 9.47095 60.4181 9.45841C60.2986 9.41707 60.1891 9.3871 60.0968 9.36505C59.9096 9.32033 59.7237 9.29177 59.5443 9.27427L58.9618 15.2459C58.9147 15.2413 58.8248 15.23 58.7029 15.2009C58.6433 15.1867 58.5589 15.1641 58.4574 15.129C58.4073 15.1117 58.337 15.0858 58.2539 15.0497C58.1986 15.0257 58.0242 14.9492 57.8193 14.8159L61.0905 9.78607ZM59.5479 9.27462C51.6699 8.49656 43.3023 8.37055 35.085 8.55498L35.2196 14.5535C43.3033 14.372 51.4087 14.5 58.9582 15.2456L59.5479 9.27462ZM35.1801 8.55436C26.5738 8.47464 17.9354 8.44017 9.36209 8.40359L9.33649 14.4035C17.914 14.4401 26.5363 14.4746 35.1245 14.5541L35.1801 8.55436ZM9.34929 8.40356C8.79372 8.40356 8.15691 8.544 7.56771 8.92331C7.01126 9.28154 6.14276 10.1255 6.12549 11.5104L12.125 11.5852C12.1087 12.8904 11.2909 13.6623 10.8155 13.9683C10.3074 14.2954 9.78208 14.4036 9.34929 14.4036V8.40356ZM6.12536 11.5228C6.11374 12.9211 6.97954 13.7864 7.53836 14.1547C8.12434 14.541 8.7546 14.6842 9.29372 14.6937L9.39888 8.69458C9.81523 8.70188 10.3346 8.8117 10.8406 9.14525C11.3194 9.46089 12.1361 10.2541 12.1252 11.5727L6.12536 11.5228ZM9.33382 14.6941C15.5438 14.7199 21.781 14.7457 28.0112 14.7866L28.0506 8.78671C21.8119 8.74579 15.5675 8.71997 9.35878 8.69415L9.33382 14.6941Z" fill="#C8A1E0" mask="url(#path-1-inside-1_5_34)"/>
</svg>
